<?xml version="1.0" standalone="no"?>
<!DOCTYPE svg PUBLIC "-//W3C//DTD SVG 20010904//EN"
 "http://www.w3.org/TR/2001/REC-SVG-20010904/DTD/svg10.dtd">
<svg version="1.0" xmlns="http://www.w3.org/2000/svg"
 width="600.000000pt" height="400.000000pt" viewBox="0 0 600.000000 400.000000"
 preserveAspectRatio="xMidYMid meet">
<metadata>
Created by potrace 1.16, written by Peter Selinger 2001-2019
</metadata>
<g transform="translate(0.000000,400.000000) scale(0.100000,-0.100000)"
fill="#000000" stroke="none">
<path d="M3298 3838 c2 -90 5 -164 6 -165 5 -7 75 11 71 17 -3 5 20 10 51 12
39 2 58 -1 61 -9 6 -14 202 -16 320 -4 91 9 69 29 -37 34 l-85 3 -3 33 c-4 39
10 59 46 63 19 2 28 10 30 26 2 12 -1 22 -7 22 -14 0 -14 47 -1 55 6 4 16 2
23 -3 7 -5 29 -15 49 -21 45 -15 66 -37 50 -53 -15 -15 -15 -28 -2 -28 5 0 13
12 16 28 4 15 13 32 19 37 7 6 15 34 18 63 l6 52 -34 0 c-28 0 -35 -4 -35 -20
0 -13 -9 -22 -25 -26 -37 -9 -58 2 -50 26 6 18 2 20 -33 20 -35 0 -41 -3 -51
-30 -5 -16 -14 -30 -20 -30 -25 0 -41 14 -41 36 0 17 -6 24 -19 24 -14 0 -20
-10 -25 -39 -6 -42 -36 -79 -36 -45 0 11 4 34 9 52 l10 33 -47 -3 -47 -3 -8
-60 c-17 -127 -16 -125 -42 -125 -21 0 -24 4 -20 28 11 70 15 162 7 162 -12 0
-22 -60 -22 -133 0 -58 0 -58 -27 -57 -51 4 -55 2 -43 -20 9 -16 8 -20 -6 -20
-15 0 -16 12 -11 115 4 88 2 115 -7 115 -10 0 -12 -37 -8 -162z"/>
<path d="M4241 3988 c-7 -33 -12 -236 -6 -265 l6 -32 227 6 c125 3 232 10 238
14 7 6 11 53 12 128 0 69 5 127 11 140 11 20 9 21 -29 21 -25 0 -40 -5 -40
-12 0 -7 -8 -32 -17 -56 l-17 -44 -12 43 c-7 24 -11 45 -9 48 3 2 5 -1 5 -7 0
-20 17 -13 23 8 5 20 0 20 -192 20 -150 0 -198 -3 -200 -12z"/>
<path d="M4883 3968 c4 -18 11 -80 17 -137 6 -57 13 -108 16 -113 3 -4 27 -8
53 -8 49 0 49 0 53 37 2 20 2 85 0 145 l-5 108 -69 0 -70 0 5 -32z"/>
<path d="M5416 3978 c-14 -53 2 -229 23 -251 4 -4 132 -4 284 -1 l277 7 0 134
0 133 -135 0 c-129 0 -147 -4 -125 -26 6 -6 2 -24 -10 -49 -10 -22 -21 -48
-24 -57 -8 -28 -24 -21 -31 12 -5 25 -11 30 -26 25 -23 -8 -26 21 -5 51 26 35
3 44 -114 44 -103 0 -108 -1 -114 -22z"/>
<path d="M5638 3650 c-114 -3 -211 -9 -215 -13 -3 -4 -1 -7 5 -7 7 0 12 -14
12 -31 0 -40 16 -70 35 -63 11 5 13 2 9 -10 -3 -9 -10 -16 -15 -16 -5 0 -9
-25 -9 -55 l0 -55 64 0 c68 0 83 7 60 28 -8 7 -14 9 -14 5 0 -11 -24 27 -38
61 -14 32 -21 32 88 3 30 -8 97 -18 149 -21 78 -5 92 -4 82 8 -8 10 -8 16 1
23 39 30 71 22 89 -24 6 -16 17 -23 34 -23 l25 0 0 100 0 100 -77 -2 c-43 -1
-171 -4 -285 -8z"/>
<path d="M3430 3621 c-37 -3 -78 -14 -93 -24 -33 -21 -36 -40 -4 -28 12 4 32
5 45 2 23 -6 23 -6 2 -21 -11 -8 -20 -19 -20 -25 0 -10 -63 -65 -76 -65 -3 0
-4 16 -2 35 2 19 1 32 -3 27 -5 -4 -9 -28 -10 -54 -2 -42 -6 -48 -24 -48 -71
0 -122 -183 -68 -242 24 -27 31 -22 38 25 5 28 17 51 37 68 l29 27 35 -37 c70
-74 99 -101 107 -101 4 0 7 -4 7 -10 0 -5 -9 -10 -21 -10 -33 0 -56 -17 -62
-48 -11 -54 -54 -52 -80 3 -26 54 -77 46 -77 -11 0 -9 5 -12 12 -8 6 4 8 3 5
-3 -4 -6 -19 -13 -35 -16 -15 -3 -39 -14 -52 -25 -23 -19 -23 -20 -7 -53 16
-33 17 -33 17 -8 0 24 4 27 40 31 22 2 40 0 40 -5 0 -5 6 -15 14 -23 10 -9 12
-27 9 -56 -3 -24 -7 -45 -9 -47 -10 -12 -58 14 -74 42 -11 17 -20 27 -20 20 0
-6 12 -25 26 -42 19 -23 34 -31 58 -31 34 0 46 15 77 99 l13 34 22 -29 c49
-61 66 -74 103 -74 61 0 92 36 104 118 2 12 8 27 14 33 12 12 121 29 140 22 6
-3 17 -28 23 -56 7 -29 19 -68 28 -87 8 -19 14 -44 13 -55 -1 -16 1 -15 14 6
8 15 21 29 30 33 12 4 13 10 6 23 -5 10 -9 35 -9 56 0 46 16 54 98 53 l55 -1
-2 -49 c-1 -26 -7 -61 -13 -76 -16 -39 -98 -102 -122 -94 -10 3 -18 1 -18 -5
0 -6 6 -11 14 -11 24 0 27 -15 14 -69 -9 -41 -9 -56 2 -76 15 -28 30 -33 30
-10 0 9 8 14 22 12 20 -2 25 7 44 68 11 39 23 77 27 85 4 8 20 56 36 105 17
50 39 100 51 112 33 35 82 173 60 173 -6 0 -30 44 -30 57 0 3 7 0 15 -7 21
-17 19 -7 -9 48 -13 26 -38 57 -54 69 -17 13 -31 31 -32 40 -2 57 -16 162 -22
169 -4 3 -24 8 -45 10 -21 2 -60 8 -88 14 -34 7 -73 7 -119 1 -60 -8 -78 -7
-125 10 -30 10 -62 18 -71 17 -8 0 -44 -4 -80 -7z m113 -417 c49 -12 76 -25
98 -48 34 -35 54 -66 42 -67 -94 -8 -169 -7 -212 2 -62 13 -57 34 7 27 35 -3
39 -1 31 14 -5 9 -17 19 -28 23 -10 3 -22 13 -25 23 -3 9 -9 23 -12 30 -8 16
17 15 99 -4z"/>
<path d="M4835 3620 c-3 -5 2 -10 12 -11 10 0 13 -3 6 -6 -8 -3 -13 -22 -13
-47 0 -68 -14 -78 -116 -87 -49 -4 -90 -8 -91 -8 -8 -2 -2 -121 6 -125 13 -8
2 -289 -12 -298 -6 -4 -9 -10 -6 -13 14 -13 128 -24 262 -26 l142 -1 3 163 c2
90 0 233 -3 317 l-7 152 -88 0 c-49 0 -92 -4 -95 -10z"/>
<path d="M5470 3286 c0 -9 6 -31 13 -49 14 -34 44 -155 49 -197 3 -20 10 -26
43 -31 22 -4 44 -3 50 2 11 11 -106 248 -136 275 -18 16 -19 16 -19 0z"/>
<path d="M4320 3147 c0 -27 -6 -49 -15 -57 -8 -7 -15 -21 -15 -31 0 -11 -7
-19 -17 -19 -9 0 -14 -3 -10 -6 3 -4 54 -10 114 -14 135 -10 152 -1 153 75 0
83 -7 97 -48 93 -27 -2 -36 -8 -37 -23 -3 -36 -16 -65 -29 -65 -22 0 -38 27
-34 57 3 25 0 28 -29 31 -33 3 -33 3 -33 -41z"/>
<path d="M720 3015 c-20 -21 -25 -39 -28 -93 -2 -39 2 -84 10 -107 12 -36 16
-40 48 -41 19 0 41 -2 49 -5 8 -2 22 10 34 29 17 30 19 40 9 80 -8 37 -7 56 5
91 13 38 13 45 0 58 -12 12 -19 13 -36 4 -15 -8 -27 -9 -40 -1 -26 13 -24 14
-51 -15z"/>
<path d="M2913 2375 c-12 -25 -23 -35 -40 -35 -19 0 -23 5 -23 32 0 37 -9 33
-12 -5 -1 -15 -8 -29 -16 -32 -7 -3 -10 -9 -7 -15 4 -6 -5 -10 -24 -8 -16 1
-27 6 -25 10 8 13 -7 49 -17 42 -6 -3 -8 -12 -5 -20 3 -8 1 -25 -4 -39 -5 -14
-6 -25 -1 -25 4 0 12 -21 18 -47 9 -37 8 -49 -3 -60 -17 -18 -6 -46 16 -40 13
3 16 -1 12 -21 -3 -16 -1 -23 6 -18 6 3 13 2 16 -3 3 -4 28 -9 55 -10 l50 -1
11 41 c9 32 15 39 29 34 28 -9 66 13 78 46 7 18 18 29 30 29 11 0 14 -3 7 -8
-15 -10 -25 -42 -14 -42 6 0 10 3 10 8 0 4 18 20 40 36 28 21 40 37 40 54 l0
24 -34 -26 c-35 -27 -60 -36 -38 -14 14 14 16 48 3 48 -5 0 -12 13 -16 29 -8
38 -27 31 -44 -14 -6 -19 -21 -37 -31 -40 -11 -4 -20 -15 -20 -25 0 -10 -7
-20 -15 -23 -11 -5 -13 0 -9 22 4 18 1 33 -9 42 -12 11 -12 16 0 27 12 13 19
82 8 82 -3 0 -13 -16 -22 -35z"/>
<path d="M915 2250 c-8 -16 -24 -75 -34 -132 -31 -165 -34 -188 -22 -188 6 0
13 -11 17 -24 12 -48 43 -65 126 -68 42 -2 79 0 83 4 18 17 2 85 -50 218 -57
145 -91 220 -100 220 -2 0 -11 -13 -20 -30z"/>
<path d="M3380 2229 c-14 -5 -38 -11 -54 -14 -42 -9 -25 -17 36 -16 42 0 66
-7 116 -35 34 -18 71 -34 81 -34 30 0 47 -28 32 -52 -15 -25 2 -83 33 -113 18
-17 27 -18 51 -10 17 5 32 12 35 16 3 3 37 16 75 30 39 13 72 27 73 32 2 4 8
5 12 2 5 -3 8 8 8 24 -1 17 -5 28 -9 26 -4 -3 -10 4 -14 15 -6 20 -35 29 -35
11 0 -11 -64 -37 -112 -46 -31 -6 -37 -4 -43 14 -3 12 -14 21 -24 21 -9 0 -44
23 -77 52 -32 28 -66 58 -76 66 -19 16 -73 22 -108 11z"/>
<path d="M2711 1923 c-18 -70 -37 -132 -42 -138 -5 -5 -9 -19 -9 -31 0 -12 -7
-28 -17 -35 -31 -26 -42 -73 -42 -179 0 -68 5 -116 15 -138 8 -19 12 -37 9
-40 -2 -3 -30 0 -62 7 -162 32 -346 62 -351 57 -3 -3 1 -32 8 -63 7 -32 14
-74 16 -93 1 -19 2 -38 3 -42 1 -5 11 -8 24 -9 l22 0 -22 -9 c-13 -5 -23 -13
-23 -19 0 -12 53 -21 65 -11 18 15 54 8 47 -9 -4 -10 -7 -11 -10 -3 -2 7 -8
12 -13 12 -6 0 -7 -4 -4 -10 4 -6 -12 -10 -39 -10 l-46 0 0 -48 c0 -36 -5 -54
-19 -66 -23 -20 -61 -13 -61 11 0 24 -78 116 -116 136 -19 9 -34 21 -34 26 0
5 -15 14 -32 21 -34 13 -88 37 -198 88 -36 17 -85 36 -110 43 -25 7 -49 16
-55 19 -5 4 -34 15 -64 25 -39 13 -73 35 -117 76 -35 33 -70 59 -77 59 -8 0
-31 14 -52 30 -21 17 -44 30 -51 30 -7 0 -15 6 -18 13 -3 9 -8 7 -15 -5 -6 -9
-25 -19 -42 -23 -42 -9 -151 -122 -143 -148 9 -27 -15 -67 -40 -67 -12 0 -31
8 -44 18 -20 15 -35 17 -109 10 -47 -4 -88 -9 -90 -12 -3 -2 -7 -23 -10 -45
-5 -37 -3 -41 16 -41 29 0 27 -18 -3 -26 -14 -3 -26 -15 -29 -27 -14 -63 -39
-228 -35 -232 2 -3 20 0 39 5 52 15 128 12 210 -9 41 -10 117 -24 169 -31 131
-17 156 -25 170 -59 12 -29 30 -37 140 -61 87 -18 86 -18 53 -43 -21 -15 -70
-30 -152 -46 -76 -15 -118 -27 -114 -34 3 -6 1 -7 -5 -3 -7 4 -33 4 -60 0 -40
-6 -43 -9 -22 -14 22 -6 20 -8 -20 -17 -49 -12 -177 -44 -279 -70 -72 -19
-113 -48 -137 -99 -21 -44 -34 -43 -34 2 0 44 51 101 99 110 17 4 34 10 36 14
3 5 -3 6 -14 3 -50 -13 -124 30 -159 93 -5 9 -69 31 -163 55 -156 40 -207 54
-266 71 -31 9 -33 13 -33 53 0 23 7 62 15 85 8 23 15 47 15 52 0 18 -116 -165
-148 -233 -29 -61 -32 -76 -32 -162 l0 -96 33 -10 c312 -91 701 -201 711 -201
37 0 48 -27 82 -200 19 -96 34 -176 34 -177 0 -2 29 -3 65 -3 55 0 65 3 64 18
0 9 -13 80 -28 157 -16 77 -24 141 -20 143 5 2 108 -24 230 -57 121 -34 223
-61 226 -61 3 0 4 -45 1 -100 l-4 -100 52 0 c61 0 64 4 64 94 0 35 2 65 5 68
3 3 118 -23 256 -58 137 -35 252 -64 255 -64 3 0 2 -9 -1 -20 -6 -20 -4 -20
887 -17 l893 3 75 23 c76 23 226 60 246 61 6 0 17 -20 24 -45 l13 -45 70 0 70
0 -8 43 c-4 23 -9 58 -11 77 -3 19 -9 47 -15 63 -8 18 -8 31 -1 40 5 6 18 38
27 69 17 59 43 88 78 88 17 0 18 -7 12 -83 -13 -190 -17 -227 -22 -227 -2 0
-12 4 -22 10 -17 9 -17 7 -3 -35 14 -43 16 -45 53 -45 27 0 39 5 43 18 3 9 19
104 35 211 16 106 33 197 38 201 13 12 204 80 225 80 16 0 18 -10 18 -107 l0
-106 -46 -43 c-47 -42 -47 -42 -42 -98 3 -40 11 -63 28 -81 16 -17 21 -31 16
-49 l-6 -26 417 0 418 1 -33 29 c-40 37 -79 39 -132 5 -62 -39 -110 -32 -110
16 0 28 -51 93 -74 94 -10 0 -62 27 -106 54 -8 6 -48 22 -88 37 -41 15 -80 37
-88 48 -10 15 -14 54 -14 152 l0 132 73 30 c67 28 184 70 398 143 116 40 119
42 122 114 2 38 9 70 21 88 17 25 19 53 20 312 1 265 0 285 -18 302 -13 13
-20 15 -23 6 -3 -7 -14 -13 -26 -13 -46 0 -66 13 -81 48 -25 59 -40 74 -69 67
-14 -4 -32 -3 -39 1 -7 5 -20 9 -28 9 -20 0 -26 35 -7 35 9 0 22 2 29 5 8 3
24 -4 36 -15 29 -27 82 -38 82 -17 0 22 -20 33 -70 41 -24 4 -49 11 -55 15
-21 16 -75 30 -80 20 -4 -5 -21 -9 -38 -9 -18 0 -47 -4 -65 -9 -49 -15 -106
14 -174 89 l-57 62 -29 -21 c-32 -23 -67 -27 -77 -11 -4 6 -16 8 -28 4 -40
-13 -61 -5 -100 36 -24 27 -43 40 -53 36 -9 -3 -22 -6 -30 -6 -24 0 -92 -69
-129 -131 -30 -49 -42 -59 -71 -65 -28 -5 -40 -2 -57 14 -30 27 -62 33 -61 10
1 -11 -5 -18 -15 -18 -23 0 -61 37 -61 59 0 12 -10 21 -25 25 -14 4 -25 11
-25 16 0 15 -27 12 -61 -5 -36 -19 -31 -32 11 -29 25 2 29 0 19 -12 -8 -10 -8
-14 0 -14 6 0 11 -7 11 -16 0 -8 4 -13 10 -9 5 3 17 -6 26 -20 9 -14 21 -25
28 -24 7 0 6 2 -1 6 -7 2 -13 9 -13 15 0 6 6 6 15 -2 8 -7 12 -16 10 -21 -3
-4 4 -13 15 -19 18 -10 19 -13 5 -26 -18 -18 -20 -28 -4 -18 7 4 10 1 7 -7 -7
-22 -36 -22 -59 0 -13 12 -24 19 -27 17 -6 -7 45 -56 59 -56 8 0 8 -4 1 -13
-6 -7 -9 -24 -6 -38 4 -15 3 -20 -3 -12 -7 10 -13 7 -27 -8 -17 -20 -17 -21 6
-14 14 4 18 3 10 -3 -13 -9 -7 -68 9 -78 5 -2 -3 -30 -16 -61 -23 -50 -24 -58
-10 -73 19 -21 19 -50 1 -76 -10 -13 -11 -23 -4 -31 8 -10 6 -13 -7 -13 -9 0
-15 -6 -12 -12 2 -7 14 -12 25 -10 14 2 22 -2 22 -12 0 -8 9 -17 19 -21 24 -7
27 -18 36 -110 8 -81 18 -112 48 -143 13 -14 17 -26 11 -31 -5 -5 -101 -13
-213 -17 l-204 -7 6 149 6 149 -25 -80 c-14 -44 -30 -92 -35 -106 l-10 -26
-180 -8 c-150 -6 -183 -4 -197 8 -29 25 -213 38 -307 21 -92 -16 -335 -30
-359 -21 -13 5 -4 23 50 97 36 49 77 99 90 109 13 10 24 27 24 37 0 11 9 30
18 42 l19 24 154 -10 c85 -6 188 -8 229 -5 41 2 155 0 252 -5 165 -9 179 -11
196 -32 18 -22 116 -55 133 -44 14 8 -1 26 -17 20 -8 -3 -14 -2 -14 3 0 14 26
31 35 23 5 -4 6 0 2 10 -4 10 1 18 14 21 10 3 19 11 19 19 0 10 -2 10 -10 -2
-5 -8 -12 -11 -16 -7 -4 4 -14 1 -22 -6 -13 -10 -15 -9 -10 5 4 10 1 19 -8 22
-9 4 -12 11 -8 18 5 8 0 7 -11 -2 -16 -13 -18 -13 -13 0 3 10 16 14 37 12 31
-2 41 10 19 24 -7 4 -8 3 -4 -5 6 -9 0 -10 -21 -5 -37 9 -43 13 -43 27 0 7 4
6 10 -3 6 -10 10 -11 10 -2 0 6 8 12 18 12 15 0 15 -2 2 -11 -12 -9 -12 -10 3
-5 10 3 21 6 24 6 17 0 -31 31 -51 32 -30 3 -33 13 -11 35 17 17 16 34 -3 41
-7 2 -12 -4 -12 -12 0 -15 -2 -15 -25 0 -31 20 -32 30 -3 37 21 6 21 7 4 26
-16 18 -16 19 1 17 10 0 21 -5 26 -11 4 -6 11 -4 17 5 7 11 10 11 10 2 0 -9 5
-10 18 -3 9 5 20 9 25 10 4 1 7 4 8 9 0 4 5 12 10 18 6 8 3 13 -11 17 -20 5
-28 27 -10 27 6 0 10 -4 10 -10 0 -5 5 -10 11 -10 8 0 8 4 -1 15 -6 8 -9 18
-6 23 3 5 -1 9 -9 9 -8 0 -15 -6 -15 -13 0 -6 -7 -15 -16 -18 -13 -5 -15 -2
-11 15 3 11 3 18 0 15 -3 -3 -12 2 -19 12 -8 9 -14 12 -14 5 0 -6 5 -15 10
-18 6 -3 10 -16 9 -28 l0 -22 -9 23 c-5 12 -12 22 -15 22 -4 0 -3 -4 0 -10 3
-5 0 -10 -9 -10 -8 0 -17 -6 -19 -12 -4 -8 -6 -7 -6 4 -1 9 4 18 10 20 19 6
-8 47 -28 44 -22 -3 -78 27 -79 42 -1 7 -3 45 -4 85 l-3 72 -6 -60 c-3 -33
-14 -72 -24 -87 -17 -24 -17 -31 -3 -104 8 -43 19 -80 25 -82 6 -2 11 -26 11
-53 l0 -49 -35 0 c-19 0 -46 5 -60 12 -19 9 -31 8 -49 -2 -28 -14 -76 -2 -108
27 -10 9 -60 30 -111 47 l-92 31 2 63 c2 34 -1 62 -5 62 -4 0 -8 44 -10 97 -2
59 -9 107 -18 125 -16 32 -28 38 -19 9 6 -19 2 -19 -98 5 -15 4 -33 2 -41 -5
-11 -9 -15 -8 -20 5 -4 10 -3 20 1 23 4 3 8 13 9 21 0 8 4 39 8 68 4 33 3 52
-4 52 -5 0 -10 -6 -10 -14 0 -7 -15 -30 -33 -50 -25 -27 -41 -36 -66 -36 -63
0 -110 40 -128 111 -5 18 -14 34 -19 36 -6 2 -25 -52 -43 -124z m2429 -328 c0
-41 -5 -52 -46 -95 -26 -28 -55 -50 -65 -50 -20 0 -26 -24 -9 -35 28 -17 40
-81 41 -207 0 -134 -7 -163 -50 -194 -25 -19 -122 -39 -129 -27 -24 37 -112
44 -172 13 -62 -31 -50 -41 43 -38 81 3 82 3 85 -23 5 -42 -30 -64 -101 -64
-59 0 -62 1 -70 30 -15 49 -24 60 -43 57 -11 -2 -55 -7 -99 -12 -76 -9 -81 -8
-96 12 -21 27 -27 69 -35 223 -5 99 -4 127 10 159 9 21 16 40 16 42 0 9 -37 3
-48 -8 -17 -17 -42 8 -42 44 0 16 -5 38 -10 49 -17 31 -2 85 26 98 33 15 86
14 106 -1 19 -15 52 -123 43 -138 -7 -11 356 -13 440 -2 l50 7 3 43 c3 37 8
46 42 67 22 14 44 25 50 25 5 0 10 10 10 23 0 25 17 47 37 47 9 0 13 -15 13
-45z m-2648 -765 c47 -5 96 -6 107 -3 15 4 21 1 21 -10 0 -24 72 -41 175 -41
117 0 171 7 217 27 21 9 48 17 61 17 13 0 27 4 33 10 6 6 20 6 39 0 17 -6 50
-16 75 -22 l45 -12 -33 -4 c-29 -3 -36 -10 -59 -60 -14 -31 -32 -71 -40 -89
-8 -17 -13 -44 -11 -60 l3 -28 173 -9 c116 -6 181 -5 196 2 17 7 28 31 49 98
14 49 27 98 29 109 3 19 10 20 218 16 234 -3 250 -7 234 -54 -5 -14 -68 -86
-141 -161 -124 -127 -130 -136 -103 -136 29 0 40 -13 21 -24 -27 -17 -155 -23
-326 -15 -251 12 -324 17 -354 24 -29 6 -380 35 -390 32 -3 -1 -21 5 -40 12
-26 11 -40 12 -65 3 -39 -14 -46 -15 -46 -4 0 5 18 15 41 22 95 32 15 29 -124
-5 -55 -12 -101 -15 -235 -10 -201 7 -510 34 -535 47 -26 14 -17 49 18 71 69
43 153 90 210 119 76 38 69 34 156 94 41 28 81 54 89 57 16 7 151 1 292 -13z
m1608 -589 c0 -10 -14 -24 -32 -34 -27 -13 -29 -16 -13 -18 14 -1 11 -3 -9 -8
-22 -4 -30 -12 -31 -30 -3 -33 -40 -58 -77 -53 -25 4 -30 2 -25 -11 4 -12 -4
-16 -38 -19 -24 -1 -41 0 -38 5 2 4 16 7 31 7 l27 0 -26 18 c-14 9 -34 25 -43
35 -10 9 -22 15 -27 12 -5 -4 -6 0 -3 8 4 12 174 76 211 80 4 1 24 9 43 18 39
19 50 17 50 -10z"/>
<path d="M513 1587 c-46 -9 -53 -13 -63 -41 -15 -44 -23 -138 -12 -154 7 -10
24 -8 83 12 l74 25 14 56 c15 63 6 99 -26 106 -10 3 -41 1 -70 -4z"/>
<path d="M250 1499 c-75 -49 -79 -56 -41 -72 l34 -14 -74 -28 c-41 -15 -95
-36 -121 -47 l-47 -20 0 -206 c-1 -226 0 -227 51 -127 30 59 126 192 150 209
12 9 25 36 33 70 15 66 22 63 -100 41 -152 -27 -164 -14 -30 34 47 17 107 41
135 53 45 21 50 27 60 71 17 80 17 80 -50 36z"/>
<path d="M660 830 c0 -23 4 -24 160 -49 100 -17 138 -19 185 -11 87 14 238 52
250 63 15 14 -58 3 -158 -23 -72 -19 -94 -22 -120 -13 -30 11 -183 36 -274 46
-37 4 -43 2 -43 -13z"/>
</g>
</svg>
